# xmcd
#
# Track frame offsets:
#	150
#	19187
#	48532
#	69245
#	81880
#	88005
#	106035
#	132310
#
# Disc length: 1966 seconds
#
# Revision: 1
# Processed by: cddbd v1.4PL0 Copyright (c) Steve Scherf et al.
# Submitted via: EasyCDDAExtractor 5.0.6
#
DISCID=5f07ac08
DTITLE=Roselyn Kind - Come What May
DYEAR=1900
DGENRE=Vocal
TTITLE0=Perfect
TTITLE1=Living Colors/Meadowlark
TTITLE2=The Man That Got Away
TTITLE3=Can You Read My Mind
TTITLE4=Somebody Loves Me
TTITLE5=How Do Yoy Keep The Music Playing
TTITLE6=Romance Medley (Smoke Gets In Your Eyes, Where Are You, You've Changed
TTITLE6=)
TTITLE7=Come What May
EXTD=
EXTT0=
EXTT1=
EXTT2=
EXTT3=
EXTT4=
EXTT5=
EXTT6=
EXTT7=
PLAYORDER=
